<?xml version="1.0" encoding="UTF-8" standalone="no"?>
<svg width="55px" height="55px" viewBox="0 0 55 55" version="1.1" xmlns="http://www.w3.org/2000/svg" xmlns:xlink="http://www.w3.org/1999/xlink" xmlns:sketch="http://www.bohemiancoding.com/sketch/ns">
    <title>github_purple</title>
    <description>Created with Sketch (http://www.bohemiancoding.com/sketch)</description>
    <defs></defs>
    <g id="Home-2" stroke="none" stroke-width="1" fill="none" fill-rule="evenodd" sketch:type="MSPage">
        <g id="Header" sketch:type="MSLayerGroup" transform="translate(-449.000000, -152.000000)">
            <g id="social_round" transform="translate(373.000000, 152.000000)" sketch:type="MSShapeGroup">
                <g id="Github" transform="translate(76.000000, 0.000000)">
                    <path d="M0,27.5 C0,12.3121686 12.3121686,0 27.5,0 C42.6878314,0 55,12.3121686 55,27.5 C55,42.6878314 42.6878314,55 27.5,55 C12.3121686,55 0,42.6878314 0,27.5 Z" fill="#9B59B6"></path>
                    <path d="M16.0528954,29.9393474 C17.3776288,32.3066261 19.9324719,33.7794602 24.241495,34.1868398 C23.6264402,34.6461492 22.8876465,35.5182103 22.7857439,36.526363 C22.0123762,37.0187999 20.4574521,37.1808565 19.2482689,36.8057091 C17.5541386,36.2792492 16.9054196,32.978131 14.3687734,33.4481844 C13.8192274,33.5502532 13.9284087,33.9065985 14.4033475,34.2092233 C15.1767152,34.7016603 15.9045907,35.3176541 16.4659647,36.6293271 C16.897231,37.6365845 17.803436,39.4362177 20.6694459,39.4362177 C21.8067514,39.4362177 22.6037751,39.3019167 22.6037751,39.3019167 C22.6037751,39.3019167 22.6256113,41.8724375 22.6256113,42.8716369 C22.6256113,44.0239393 21.0452116,44.3489477 21.0452116,44.9031631 C21.0452116,45.1225214 21.5683721,45.1431142 21.9887202,45.1431142 C22.8194082,45.1431142 24.5481125,44.4608652 24.5481125,43.2629004 C24.5481125,42.3111541 24.5635799,39.1112093 24.5635799,38.5516219 C24.5635799,37.3276922 25.2304958,36.94001 25.2304958,36.94001 C25.2304958,36.94001 25.3132917,43.4733053 25.0712731,44.3489477 C24.7874016,45.3785886 24.2751592,45.2326482 24.2751592,45.6919576 C24.2751592,46.3751019 26.3559734,45.8593861 27.0456354,44.3596918 C27.5788042,43.1921686 27.3458841,36.7833256 27.3458841,36.7833256 L27.9145368,36.7716861 C27.9145368,36.7716861 27.9463814,39.705715 27.9272746,41.0469342 C27.9072581,42.4356063 27.8117244,44.1922632 28.6496911,45.0204526 C29.200147,45.5648193 30.9852617,46.520147 30.9852617,45.6471906 C30.9852617,45.1395328 30.0071789,44.7223045 30.0071789,43.348853 L30.0071789,37.029544 C30.7878254,37.029544 30.6704555,39.1076279 30.6704555,39.1076279 L30.7277757,42.9683336 C30.7277757,42.9683336 30.5558151,44.3749126 32.2736014,44.9640462 C32.8795577,45.1726604 34.1769958,45.2290668 34.2379554,44.8789889 C34.298915,44.5280157 32.6757526,44.0060325 32.6611951,42.9164039 C32.6520966,42.2520617 32.6912199,41.8643795 32.6912199,38.9769083 C32.6912199,36.0894371 32.2972573,35.022192 30.9243021,34.1716191 C35.1614475,33.7427513 37.783619,32.7112302 39.0619504,29.9483008 C39.1617674,29.9515263 39.5823339,28.6576698 39.5277908,28.658116 C39.8143917,27.615045 39.9690653,26.3812666 40,24.9200719 C39.9927212,20.9581928 38.0656708,19.5569859 37.6953641,18.898911 C38.2412708,15.8995224 37.6043797,14.534129 37.3086803,14.0658663 C36.216867,13.6835561 33.5100799,15.0489495 32.0315827,16.0114399 C29.6204951,15.3175514 24.5253664,15.3847019 22.6146932,16.1905078 C19.0890461,13.7059396 17.2238651,14.0864591 17.2238651,14.0864591 C17.2238651,14.0864591 16.0183213,16.2128913 16.9054196,19.3241975 C15.745368,20.7791248 14.8810158,21.8087657 14.8810158,24.5377617 C14.8810158,26.0750603 15.0648044,27.4511978 15.4796934,28.6527439 C15.4288332,28.6526205 16.0361265,29.9397437 16.0528954,29.9393474 Z" id="Path" fill="#FFFFFF"></path>
                </g>
            </g>
        </g>
    </g>
</svg>