<?xml version="1.0" encoding="UTF-8" standalone="no"?>
<svg width="55px" height="55px" viewBox="0 0 55 55" version="1.1" xmlns="http://www.w3.org/2000/svg" xmlns:xlink="http://www.w3.org/1999/xlink" xmlns:sketch="http://www.bohemiancoding.com/sketch/ns">
    <title>twitter_purple</title>
    <description>Created with Sketch (http://www.bohemiancoding.com/sketch)</description>
    <defs></defs>
    <g id="Home-2" stroke="none" stroke-width="1" fill="none" fill-rule="evenodd" sketch:type="MSPage">
        <g id="Header" sketch:type="MSLayerGroup" transform="translate(-373.000000, -218.000000)">
            <g id="social_round" transform="translate(373.000000, 218.000000)" sketch:type="MSShapeGroup">
                <g id="Twitter">
                    <path d="M0,27.5 C0,12.3121686 12.3121686,0 27.5,0 C42.6878314,0 55,12.3121686 55,27.5 C55,42.6878314 42.6878314,55 27.5,55 C12.3121686,55 0,42.6878314 0,27.5 Z" fill="#9B59B6"></path>
                    <path d="M27.1100407,23.8523445 L27.1685676,24.8039065 L26.1931182,24.6873887 C22.6424822,24.2407371 19.5405529,22.7260057 16.9068394,20.1820337 L15.6192461,18.9197576 L15.2875933,19.8519 C14.5852697,21.9298008 15.0339764,24.1242193 16.4971506,25.6001115 C17.2775102,26.4157361 17.1019293,26.5322539 15.755809,26.0467631 C15.2875933,25.891406 14.8779045,25.7748882 14.8388865,25.8331471 C14.7023236,25.9690845 15.1705393,27.7362712 15.5412101,28.435378 C16.0484439,29.4063596 17.0824203,30.3579217 18.2139416,30.9210911 L19.1698821,31.3677426 L18.0383607,31.3871623 C16.9458574,31.3871623 16.9068394,31.4065819 17.0238933,31.8143942 C17.4140731,33.0766704 18.9552832,34.4166251 20.6720743,34.9992141 L21.8816316,35.4070264 L20.8281462,36.0284547 C19.2674271,36.9217578 17.4335821,37.4266683 15.5997371,37.4655075 C14.7218326,37.4849272 14,37.5626057 14,37.6208646 C14,37.8150609 16.3800967,38.9025604 17.7652349,39.3297924 C21.9206496,40.5920685 26.8564238,40.0483188 30.5631317,37.8927395 C33.1968453,36.3585884 35.8305588,33.309706 37.0596251,30.3579217 C37.7229307,28.7849314 38.3862364,25.9108256 38.3862364,24.5320316 C38.3862364,23.6387285 38.4447633,23.5222107 39.5372667,22.4541309 C40.1810634,21.8327026 40.785842,21.1530154 40.902896,20.9588191 C41.0979858,20.589846 41.0784769,20.589846 40.0835184,20.9199798 C38.4252543,21.5025688 38.1911465,21.4248903 39.010524,20.5510068 C39.6153027,19.9295785 40.3371353,18.8032398 40.3371353,18.473106 C40.3371353,18.4148471 40.0445004,18.5119453 39.7128476,18.686722 C39.3616858,18.8809183 38.5813262,19.1722128 37.9960566,19.3469895 L36.9425712,19.6771233 L35.9866307,19.0362754 C35.459888,18.686722 34.7185464,18.2983293 34.3283666,18.1818115 C33.3334082,17.9099366 31.811707,17.9487759 30.9142935,18.25949 C28.4756699,19.1333735 26.9344598,21.386051 27.1100407,23.8523445 Z" id="Path" fill="#FFFFFF"></path>
                </g>
            </g>
        </g>
    </g>
</svg>